<?xml version="1.0" encoding="iso-8859-1"?>
<!-- Generator: Adobe Illustrator 19.0.0, SVG Export Plug-In . SVG Version: 6.00 Build 0)  -->
<svg version="1.1" id="Layer_1" xmlns="http://www.w3.org/2000/svg" xmlns:xlink="http://www.w3.org/1999/xlink" x="0px" y="0px"
	 viewBox="0 0 512 512" style="enable-background:new 0 0 512 512;" xml:space="preserve">
<rect x="140.8" y="64" style="fill:#8CC0C5;" width="230.4" height="332.8"/>
<path style="fill:#D3D7DF;" d="M89.6,499.2V12.8h332.8v486.4H89.6z M256,435.2c-7.057,0-12.8,5.743-12.8,12.8s5.743,12.8,12.8,12.8
	c7.057,0,12.8-5.743,12.8-12.8S263.057,435.2,256,435.2z M371.2,396.8V64H140.8v332.8H371.2z"/>
<g>
	<path style="fill:#573A32;" d="M409.6,0H102.4C88.26,0,76.8,11.46,76.8,25.6v460.8c0,14.14,11.46,25.6,25.6,25.6h307.2
		c14.14,0,25.6-11.46,25.6-25.6V25.6C435.2,11.46,423.74,0,409.6,0z M409.6,486.4H102.4V25.6h307.2V486.4z"/>
	<path style="fill:#573A32;" d="M384,51.2H128v358.4h256V51.2z M358.4,384H153.6V76.8h204.8V384z"/>
	<circle style="fill:#573A32;" cx="256" cy="448" r="25.6"/>
</g>
<g>
</g>
<g>
</g>
<g>
</g>
<g>
</g>
<g>
</g>
<g>
</g>
<g>
</g>
<g>
</g>
<g>
</g>
<g>
</g>
<g>
</g>
<g>
</g>
<g>
</g>
<g>
</g>
<g>
</g>
</svg>
